<mxfile host="app.diagrams.net" modified="2020-10-19T20:36:16.995Z" agent="5.0 (Macintosh; Intel Mac OS X 10_15_7) AppleWebKit/537.36 (KHTML, like Gecko) Chrome/86.0.4240.75 Safari/537.36" etag="z9LiD2qxSOu192OWUv6C" version="13.8.0" type="github">
  <diagram id="uQzgADAbOvrWfYqJeWZQ" name="Page-1">
    <mxGraphModel dx="2253" dy="770" grid="1" gridSize="10" guides="1" tooltips="1" connect="1" arrows="1" fold="1" page="1" pageScale="1" pageWidth="827" pageHeight="1169" math="0" shadow="0">
      <root>
        <mxCell id="0" />
        <mxCell id="1" parent="0" />
        <mxCell id="fqgecBpv5Y54pybV76AC-78" value="" style="rounded=1;whiteSpace=wrap;html=1;labelBackgroundColor=#FF6666;gradientColor=none;fontColor=#FF0000;" vertex="1" parent="1">
          <mxGeometry x="-350" y="20" width="900" height="740" as="geometry" />
        </mxCell>
        <mxCell id="fqgecBpv5Y54pybV76AC-38" value="" style="ellipse;shape=cloud;whiteSpace=wrap;html=1;" vertex="1" parent="1">
          <mxGeometry x="-350" y="500" width="740" height="240" as="geometry" />
        </mxCell>
        <mxCell id="fqgecBpv5Y54pybV76AC-57" value="" style="ellipse;shape=cloud;whiteSpace=wrap;html=1;" vertex="1" parent="1">
          <mxGeometry x="-340" y="390" width="180" height="90" as="geometry" />
        </mxCell>
        <mxCell id="GLq832-f8G-JJnEULKAt-29" value="&lt;span style=&quot;background-color: rgb(248 , 249 , 250)&quot;&gt;nginx-proxy&lt;/span&gt;&lt;br style=&quot;background-color: rgb(248 , 249 , 250)&quot;&gt;&lt;span style=&quot;background-color: rgb(248 , 249 , 250)&quot;&gt;Beta&lt;/span&gt;" style="shape=cube;whiteSpace=wrap;html=1;boundedLbl=1;backgroundOutline=1;darkOpacity=0.05;darkOpacity2=0.1;labelBackgroundColor=#ffffff;sketch=0;" parent="1" vertex="1">
          <mxGeometry x="-130" y="310" width="120" height="80" as="geometry" />
        </mxCell>
        <mxCell id="GLq832-f8G-JJnEULKAt-31" value="&lt;span style=&quot;background-color: rgb(248 , 249 , 250)&quot;&gt;nginx-proxy&lt;/span&gt;&lt;br style=&quot;background-color: rgb(248 , 249 , 250)&quot;&gt;&lt;span style=&quot;background-color: rgb(248 , 249 , 250)&quot;&gt;Review&lt;/span&gt;" style="shape=cube;whiteSpace=wrap;html=1;boundedLbl=1;backgroundOutline=1;darkOpacity=0.05;darkOpacity2=0.1;labelBackgroundColor=#ffffff;sketch=0;" parent="1" vertex="1">
          <mxGeometry x="10" y="395" width="120" height="80" as="geometry" />
        </mxCell>
        <mxCell id="fqgecBpv5Y54pybV76AC-54" value="" style="ellipse;shape=cloud;whiteSpace=wrap;html=1;" vertex="1" parent="1">
          <mxGeometry x="-160" y="385" width="180" height="90" as="geometry" />
        </mxCell>
        <mxCell id="fqgecBpv5Y54pybV76AC-45" value="" style="shape=cube;whiteSpace=wrap;html=1;boundedLbl=1;backgroundOutline=1;darkOpacity=0.05;darkOpacity2=0.1;" vertex="1" parent="1">
          <mxGeometry x="237.85000000000002" y="580" width="50" height="30" as="geometry" />
        </mxCell>
        <mxCell id="GLq832-f8G-JJnEULKAt-33" value="&lt;span&gt;gitlab-runner&lt;/span&gt;&lt;br&gt;&lt;span&gt;docker-n&lt;/span&gt;" style="shape=cube;whiteSpace=wrap;html=1;boundedLbl=1;backgroundOutline=1;darkOpacity=0.05;darkOpacity2=0.1;labelBackgroundColor=#ffffff;sketch=0;" parent="1" vertex="1">
          <mxGeometry x="400" y="430" width="120" height="60" as="geometry" />
        </mxCell>
        <mxCell id="GLq832-f8G-JJnEULKAt-39" value="" style="shape=cube;whiteSpace=wrap;html=1;boundedLbl=1;backgroundOutline=1;darkOpacity=0.05;darkOpacity2=0.1;labelBackgroundColor=#ffffff;sketch=0;" parent="1" vertex="1">
          <mxGeometry x="400" y="400" width="120" height="40" as="geometry" />
        </mxCell>
        <mxCell id="GLq832-f8G-JJnEULKAt-40" value="" style="shape=cube;whiteSpace=wrap;html=1;boundedLbl=1;backgroundOutline=1;darkOpacity=0.05;darkOpacity2=0.1;labelBackgroundColor=#ffffff;sketch=0;" parent="1" vertex="1">
          <mxGeometry x="400" y="370" width="120" height="40" as="geometry" />
        </mxCell>
        <mxCell id="GLq832-f8G-JJnEULKAt-41" value="" style="shape=cube;whiteSpace=wrap;html=1;boundedLbl=1;backgroundOutline=1;darkOpacity=0.05;darkOpacity2=0.1;labelBackgroundColor=#ffffff;sketch=0;" parent="1" vertex="1">
          <mxGeometry x="400" y="340" width="120" height="40" as="geometry" />
        </mxCell>
        <mxCell id="GLq832-f8G-JJnEULKAt-38" value="" style="shape=cube;whiteSpace=wrap;html=1;boundedLbl=1;backgroundOutline=1;darkOpacity=0.05;darkOpacity2=0.1;labelBackgroundColor=#ffffff;sketch=0;" parent="1" vertex="1">
          <mxGeometry x="400" y="310" width="120" height="40" as="geometry" />
        </mxCell>
        <mxCell id="GLq832-f8G-JJnEULKAt-12" value="" style="endArrow=classic;html=1;" parent="1" source="GLq832-f8G-JJnEULKAt-27" target="GLq832-f8G-JJnEULKAt-32" edge="1">
          <mxGeometry width="50" height="50" relative="1" as="geometry">
            <mxPoint x="160" y="100" as="sourcePoint" />
            <mxPoint x="292.27272727272725" y="320" as="targetPoint" />
          </mxGeometry>
        </mxCell>
        <mxCell id="GLq832-f8G-JJnEULKAt-15" value="https://registry.typingninjas.com&lt;br&gt;https://gitlab.typingninjas.com" style="text;html=1;align=center;verticalAlign=middle;resizable=0;points=[];autosize=1;labelBackgroundColor=#ffffff;" parent="1" vertex="1">
          <mxGeometry x="120" y="270" width="180" height="30" as="geometry" />
        </mxCell>
        <mxCell id="GLq832-f8G-JJnEULKAt-18" value="" style="endArrow=classic;html=1;" parent="1" source="GLq832-f8G-JJnEULKAt-27" target="GLq832-f8G-JJnEULKAt-28" edge="1">
          <mxGeometry width="50" height="50" relative="1" as="geometry">
            <mxPoint x="-220" y="230" as="sourcePoint" />
            <mxPoint x="-92.27272727272725" y="320" as="targetPoint" />
          </mxGeometry>
        </mxCell>
        <mxCell id="GLq832-f8G-JJnEULKAt-19" value="https://www.typingninjas.com" style="text;html=1;align=center;verticalAlign=middle;resizable=0;points=[];autosize=1;labelBackgroundColor=#ffffff;" parent="1" vertex="1">
          <mxGeometry x="-200" y="240" width="170" height="20" as="geometry" />
        </mxCell>
        <mxCell id="GLq832-f8G-JJnEULKAt-20" value="https://beta.typingninjas.com" style="text;html=1;align=center;verticalAlign=middle;resizable=0;points=[];autosize=1;sketch=0;labelBackgroundColor=#ffffff;" parent="1" vertex="1">
          <mxGeometry x="-120" y="270" width="170" height="20" as="geometry" />
        </mxCell>
        <mxCell id="GLq832-f8G-JJnEULKAt-21" value="" style="endArrow=classic;html=1;" parent="1" source="GLq832-f8G-JJnEULKAt-27" target="GLq832-f8G-JJnEULKAt-29" edge="1">
          <mxGeometry width="50" height="50" relative="1" as="geometry">
            <mxPoint x="100" y="310" as="sourcePoint" />
            <mxPoint x="30.454545454545496" y="320" as="targetPoint" />
          </mxGeometry>
        </mxCell>
        <mxCell id="GLq832-f8G-JJnEULKAt-22" value="" style="endArrow=classic;html=1;" parent="1" source="GLq832-f8G-JJnEULKAt-27" target="GLq832-f8G-JJnEULKAt-31" edge="1">
          <mxGeometry width="50" height="50" relative="1" as="geometry">
            <mxPoint x="100" y="310" as="sourcePoint" />
            <mxPoint x="161.36363636363626" y="320" as="targetPoint" />
          </mxGeometry>
        </mxCell>
        <mxCell id="GLq832-f8G-JJnEULKAt-23" value="&lt;span&gt;Review Network:&lt;br&gt;http://{COMMIT_REF_SLUG}.typingninjas.com&lt;/span&gt;" style="text;html=1;strokeColor=none;fillColor=none;align=center;verticalAlign=middle;whiteSpace=wrap;rounded=0;labelBackgroundColor=#ffffff;" parent="1" vertex="1">
          <mxGeometry x="-170.01" y="650" width="100" height="20" as="geometry" />
        </mxCell>
        <mxCell id="GLq832-f8G-JJnEULKAt-27" value="&lt;span style=&quot;background-color: rgb(248 , 249 , 250)&quot;&gt;nginx&lt;/span&gt;" style="shape=cube;whiteSpace=wrap;html=1;boundedLbl=1;backgroundOutline=1;darkOpacity=0.05;darkOpacity2=0.1;labelBackgroundColor=#ffffff;sketch=0;" parent="1" vertex="1">
          <mxGeometry x="40" y="100" width="120" height="80" as="geometry" />
        </mxCell>
        <mxCell id="GLq832-f8G-JJnEULKAt-28" value="&lt;span style=&quot;background-color: rgb(248 , 249 , 250)&quot;&gt;nginx-proxy&lt;/span&gt;&lt;br style=&quot;background-color: rgb(248 , 249 , 250)&quot;&gt;&lt;span style=&quot;background-color: rgb(248 , 249 , 250)&quot;&gt;Production&lt;/span&gt;" style="shape=cube;whiteSpace=wrap;html=1;boundedLbl=1;backgroundOutline=1;darkOpacity=0.05;darkOpacity2=0.1;labelBackgroundColor=#ffffff;sketch=0;" parent="1" vertex="1">
          <mxGeometry x="-320" y="305" width="120" height="80" as="geometry" />
        </mxCell>
        <mxCell id="GLq832-f8G-JJnEULKAt-32" value="&lt;span style=&quot;background-color: rgb(248 , 249 , 250)&quot;&gt;gitlab/gitlab:ce&lt;/span&gt;" style="shape=cube;whiteSpace=wrap;html=1;boundedLbl=1;backgroundOutline=1;darkOpacity=0.05;darkOpacity2=0.1;labelBackgroundColor=#ffffff;sketch=0;" parent="1" vertex="1">
          <mxGeometry x="134" y="310" width="166" height="170" as="geometry" />
        </mxCell>
        <mxCell id="GLq832-f8G-JJnEULKAt-34" value="" style="shape=cube;whiteSpace=wrap;html=1;boundedLbl=1;backgroundOutline=1;darkOpacity=0.05;darkOpacity2=0.1;labelBackgroundColor=#ffffff;sketch=0;" parent="1" vertex="1">
          <mxGeometry x="400" y="280" width="120" height="40" as="geometry" />
        </mxCell>
        <mxCell id="GLq832-f8G-JJnEULKAt-36" value="" style="shape=cube;whiteSpace=wrap;html=1;boundedLbl=1;backgroundOutline=1;darkOpacity=0.05;darkOpacity2=0.1;labelBackgroundColor=#ffffff;sketch=0;" parent="1" vertex="1">
          <mxGeometry x="400" y="250" width="120" height="40" as="geometry" />
        </mxCell>
        <mxCell id="GLq832-f8G-JJnEULKAt-37" value="&lt;span&gt;gitlab-runner&lt;/span&gt;&lt;br&gt;&lt;span&gt;docker-1&lt;/span&gt;" style="shape=cube;whiteSpace=wrap;html=1;boundedLbl=1;backgroundOutline=1;darkOpacity=0.05;darkOpacity2=0.1;labelBackgroundColor=#ffffff;sketch=0;" parent="1" vertex="1">
          <mxGeometry x="400" y="200" width="120" height="60" as="geometry" />
        </mxCell>
        <mxCell id="GLq832-f8G-JJnEULKAt-44" value="" style="shape=flexArrow;endArrow=classic;startArrow=classic;html=1;" parent="1" source="GLq832-f8G-JJnEULKAt-32" target="GLq832-f8G-JJnEULKAt-40" edge="1">
          <mxGeometry width="50" height="50" relative="1" as="geometry">
            <mxPoint x="310" y="200" as="sourcePoint" />
            <mxPoint x="360" y="150" as="targetPoint" />
          </mxGeometry>
        </mxCell>
        <mxCell id="GLq832-f8G-JJnEULKAt-45" value="&lt;span style=&quot;font-size: 23px&quot;&gt;&lt;b&gt;System-Web&lt;/b&gt;&lt;/span&gt;" style="text;html=1;align=center;verticalAlign=middle;resizable=0;points=[];autosize=1;" parent="1" vertex="1">
          <mxGeometry x="-190" y="50" width="150" height="20" as="geometry" />
        </mxCell>
        <mxCell id="fqgecBpv5Y54pybV76AC-7" value="" style="group" vertex="1" connectable="0" parent="1">
          <mxGeometry x="80" y="570" width="50" height="80" as="geometry" />
        </mxCell>
        <mxCell id="fqgecBpv5Y54pybV76AC-1" value="" style="shape=cube;whiteSpace=wrap;html=1;boundedLbl=1;backgroundOutline=1;darkOpacity=0.05;darkOpacity2=0.1;" vertex="1" parent="fqgecBpv5Y54pybV76AC-7">
          <mxGeometry y="50" width="50" height="30" as="geometry" />
        </mxCell>
        <mxCell id="fqgecBpv5Y54pybV76AC-2" value="" style="shape=cube;whiteSpace=wrap;html=1;boundedLbl=1;backgroundOutline=1;darkOpacity=0.05;darkOpacity2=0.1;" vertex="1" parent="fqgecBpv5Y54pybV76AC-7">
          <mxGeometry y="40" width="50" height="30" as="geometry" />
        </mxCell>
        <mxCell id="fqgecBpv5Y54pybV76AC-3" value="" style="shape=cube;whiteSpace=wrap;html=1;boundedLbl=1;backgroundOutline=1;darkOpacity=0.05;darkOpacity2=0.1;" vertex="1" parent="fqgecBpv5Y54pybV76AC-7">
          <mxGeometry y="30" width="50" height="30" as="geometry" />
        </mxCell>
        <mxCell id="fqgecBpv5Y54pybV76AC-4" value="" style="shape=cube;whiteSpace=wrap;html=1;boundedLbl=1;backgroundOutline=1;darkOpacity=0.05;darkOpacity2=0.1;" vertex="1" parent="fqgecBpv5Y54pybV76AC-7">
          <mxGeometry y="20" width="50" height="30" as="geometry" />
        </mxCell>
        <mxCell id="fqgecBpv5Y54pybV76AC-5" value="" style="shape=cube;whiteSpace=wrap;html=1;boundedLbl=1;backgroundOutline=1;darkOpacity=0.05;darkOpacity2=0.1;" vertex="1" parent="fqgecBpv5Y54pybV76AC-7">
          <mxGeometry y="10" width="50" height="30" as="geometry" />
        </mxCell>
        <mxCell id="fqgecBpv5Y54pybV76AC-6" value="" style="shape=cube;whiteSpace=wrap;html=1;boundedLbl=1;backgroundOutline=1;darkOpacity=0.05;darkOpacity2=0.1;" vertex="1" parent="fqgecBpv5Y54pybV76AC-7">
          <mxGeometry width="50" height="30" as="geometry" />
        </mxCell>
        <mxCell id="fqgecBpv5Y54pybV76AC-20" value="" style="group" vertex="1" connectable="0" parent="fqgecBpv5Y54pybV76AC-7">
          <mxGeometry x="-34" width="50" height="80" as="geometry" />
        </mxCell>
        <mxCell id="fqgecBpv5Y54pybV76AC-21" value="" style="shape=cube;whiteSpace=wrap;html=1;boundedLbl=1;backgroundOutline=1;darkOpacity=0.05;darkOpacity2=0.1;" vertex="1" parent="fqgecBpv5Y54pybV76AC-20">
          <mxGeometry y="50" width="50" height="30" as="geometry" />
        </mxCell>
        <mxCell id="fqgecBpv5Y54pybV76AC-22" value="" style="shape=cube;whiteSpace=wrap;html=1;boundedLbl=1;backgroundOutline=1;darkOpacity=0.05;darkOpacity2=0.1;" vertex="1" parent="fqgecBpv5Y54pybV76AC-20">
          <mxGeometry y="40" width="50" height="30" as="geometry" />
        </mxCell>
        <mxCell id="fqgecBpv5Y54pybV76AC-24" value="" style="shape=cube;whiteSpace=wrap;html=1;boundedLbl=1;backgroundOutline=1;darkOpacity=0.05;darkOpacity2=0.1;" vertex="1" parent="fqgecBpv5Y54pybV76AC-20">
          <mxGeometry y="20" width="50" height="30" as="geometry" />
        </mxCell>
        <mxCell id="fqgecBpv5Y54pybV76AC-25" value="" style="shape=cube;whiteSpace=wrap;html=1;boundedLbl=1;backgroundOutline=1;darkOpacity=0.05;darkOpacity2=0.1;" vertex="1" parent="fqgecBpv5Y54pybV76AC-20">
          <mxGeometry y="10" width="50" height="30" as="geometry" />
        </mxCell>
        <mxCell id="fqgecBpv5Y54pybV76AC-26" value="" style="shape=cube;whiteSpace=wrap;html=1;boundedLbl=1;backgroundOutline=1;darkOpacity=0.05;darkOpacity2=0.1;" vertex="1" parent="fqgecBpv5Y54pybV76AC-20">
          <mxGeometry width="50" height="30" as="geometry" />
        </mxCell>
        <mxCell id="fqgecBpv5Y54pybV76AC-28" value="" style="group" vertex="1" connectable="0" parent="fqgecBpv5Y54pybV76AC-20">
          <mxGeometry x="-26" width="50" height="80" as="geometry" />
        </mxCell>
        <mxCell id="fqgecBpv5Y54pybV76AC-29" value="" style="shape=cube;whiteSpace=wrap;html=1;boundedLbl=1;backgroundOutline=1;darkOpacity=0.05;darkOpacity2=0.1;" vertex="1" parent="fqgecBpv5Y54pybV76AC-28">
          <mxGeometry y="50" width="50" height="30" as="geometry" />
        </mxCell>
        <mxCell id="fqgecBpv5Y54pybV76AC-30" value="" style="shape=cube;whiteSpace=wrap;html=1;boundedLbl=1;backgroundOutline=1;darkOpacity=0.05;darkOpacity2=0.1;" vertex="1" parent="fqgecBpv5Y54pybV76AC-28">
          <mxGeometry y="40" width="50" height="30" as="geometry" />
        </mxCell>
        <mxCell id="fqgecBpv5Y54pybV76AC-31" value="" style="shape=cube;whiteSpace=wrap;html=1;boundedLbl=1;backgroundOutline=1;darkOpacity=0.05;darkOpacity2=0.1;" vertex="1" parent="1">
          <mxGeometry x="-90" y="430" width="50" height="30" as="geometry" />
        </mxCell>
        <mxCell id="fqgecBpv5Y54pybV76AC-23" value="" style="shape=cube;whiteSpace=wrap;html=1;boundedLbl=1;backgroundOutline=1;darkOpacity=0.05;darkOpacity2=0.1;" vertex="1" parent="1">
          <mxGeometry x="-270" y="430" width="50" height="30" as="geometry" />
        </mxCell>
        <mxCell id="fqgecBpv5Y54pybV76AC-32" value="" style="shape=cube;whiteSpace=wrap;html=1;boundedLbl=1;backgroundOutline=1;darkOpacity=0.05;darkOpacity2=0.1;" vertex="1" parent="1">
          <mxGeometry x="-10" y="620" width="50" height="30" as="geometry" />
        </mxCell>
        <mxCell id="fqgecBpv5Y54pybV76AC-73" style="edgeStyle=orthogonalEdgeStyle;rounded=0;orthogonalLoop=1;jettySize=auto;html=1;entryX=0;entryY=0;entryDx=35;entryDy=30;entryPerimeter=0;fontColor=#FF0000;" edge="1" parent="1" source="fqgecBpv5Y54pybV76AC-33" target="fqgecBpv5Y54pybV76AC-23">
          <mxGeometry relative="1" as="geometry" />
        </mxCell>
        <mxCell id="fqgecBpv5Y54pybV76AC-33" value="" style="shape=cube;whiteSpace=wrap;html=1;boundedLbl=1;backgroundOutline=1;darkOpacity=0.05;darkOpacity2=0.1;" vertex="1" parent="1">
          <mxGeometry x="-260" y="575" width="50" height="30" as="geometry" />
        </mxCell>
        <mxCell id="fqgecBpv5Y54pybV76AC-76" style="edgeStyle=orthogonalEdgeStyle;rounded=0;orthogonalLoop=1;jettySize=auto;html=1;entryX=0;entryY=0;entryDx=35;entryDy=30;entryPerimeter=0;fontColor=#FF0000;" edge="1" parent="1" source="fqgecBpv5Y54pybV76AC-34" target="fqgecBpv5Y54pybV76AC-31">
          <mxGeometry relative="1" as="geometry" />
        </mxCell>
        <mxCell id="fqgecBpv5Y54pybV76AC-34" value="" style="shape=cube;whiteSpace=wrap;html=1;boundedLbl=1;backgroundOutline=1;darkOpacity=0.05;darkOpacity2=0.1;" vertex="1" parent="1">
          <mxGeometry x="-80" y="575" width="50" height="30" as="geometry" />
        </mxCell>
        <mxCell id="fqgecBpv5Y54pybV76AC-43" value="" style="endArrow=classic;html=1;exitX=0;exitY=0;exitDx=70;exitDy=80;exitPerimeter=0;entryX=0.559;entryY=0.129;entryDx=0;entryDy=0;entryPerimeter=0;" edge="1" parent="1" source="GLq832-f8G-JJnEULKAt-31" target="fqgecBpv5Y54pybV76AC-38">
          <mxGeometry width="50" height="50" relative="1" as="geometry">
            <mxPoint x="330" y="410" as="sourcePoint" />
            <mxPoint x="380" y="360" as="targetPoint" />
          </mxGeometry>
        </mxCell>
        <mxCell id="fqgecBpv5Y54pybV76AC-66" style="edgeStyle=orthogonalEdgeStyle;rounded=0;orthogonalLoop=1;jettySize=auto;html=1;" edge="1" parent="1" source="fqgecBpv5Y54pybV76AC-44" target="fqgecBpv5Y54pybV76AC-45">
          <mxGeometry relative="1" as="geometry" />
        </mxCell>
        <mxCell id="fqgecBpv5Y54pybV76AC-44" value="" style="outlineConnect=0;fontColor=#232F3E;gradientColor=none;fillColor=#277116;strokeColor=none;dashed=0;verticalLabelPosition=bottom;verticalAlign=top;align=center;html=1;fontSize=12;fontStyle=0;aspect=fixed;pointerEvents=1;shape=mxgraph.aws4.iot_analytics_pipeline;" vertex="1" parent="1">
          <mxGeometry x="225.70999999999998" y="480" width="74.29" height="40" as="geometry" />
        </mxCell>
        <mxCell id="fqgecBpv5Y54pybV76AC-47" value="Build" style="text;html=1;align=center;verticalAlign=middle;resizable=0;points=[];autosize=1;fillColor=#ffffff;labelBackgroundColor=#ffffff;labelBorderColor=none;" vertex="1" parent="1">
          <mxGeometry x="185.70999999999998" y="480" width="40" height="20" as="geometry" />
        </mxCell>
        <mxCell id="fqgecBpv5Y54pybV76AC-48" value="Deploy Beta" style="text;html=1;align=center;verticalAlign=middle;resizable=0;points=[];autosize=1;fillColor=#ffffff;labelBackgroundColor=#ffffff;labelBorderColor=none;" vertex="1" parent="1">
          <mxGeometry x="-170" y="475" width="80" height="20" as="geometry" />
        </mxCell>
        <mxCell id="fqgecBpv5Y54pybV76AC-56" value="&lt;span&gt;beta.typingninjas.com&lt;/span&gt;" style="text;html=1;align=center;verticalAlign=middle;resizable=0;points=[];autosize=1;" vertex="1" parent="1">
          <mxGeometry x="-135" y="410" width="130" height="20" as="geometry" />
        </mxCell>
        <mxCell id="fqgecBpv5Y54pybV76AC-58" value="&lt;span&gt;www.typingninjas.com&lt;/span&gt;" style="text;html=1;align=center;verticalAlign=middle;resizable=0;points=[];autosize=1;" vertex="1" parent="1">
          <mxGeometry x="-325" y="410" width="130" height="20" as="geometry" />
        </mxCell>
        <mxCell id="fqgecBpv5Y54pybV76AC-59" value="" style="outlineConnect=0;fontColor=#232F3E;gradientColor=none;fillColor=#277116;strokeColor=none;dashed=0;verticalLabelPosition=bottom;verticalAlign=top;align=center;html=1;fontSize=12;fontStyle=0;aspect=fixed;pointerEvents=1;shape=mxgraph.aws4.iot_analytics_pipeline;" vertex="1" parent="1">
          <mxGeometry x="-274.2900000000001" y="500" width="74.29" height="40" as="geometry" />
        </mxCell>
        <mxCell id="fqgecBpv5Y54pybV76AC-61" value="Deploy Production" style="text;html=1;align=center;verticalAlign=middle;resizable=0;points=[];autosize=1;fillColor=#ffffff;labelBackgroundColor=#ffffff;labelBorderColor=none;" vertex="1" parent="1">
          <mxGeometry x="-350" y="480" width="110" height="20" as="geometry" />
        </mxCell>
        <mxCell id="fqgecBpv5Y54pybV76AC-69" value="" style="verticalLabelPosition=bottom;verticalAlign=top;html=1;shape=mxgraph.basic.x;labelBackgroundColor=#FF6666;fontColor=#FF0000;fillColor=#FF1212;" vertex="1" parent="1">
          <mxGeometry x="-70" y="580" width="39.99" height="20" as="geometry" />
        </mxCell>
        <mxCell id="fqgecBpv5Y54pybV76AC-71" value="" style="verticalLabelPosition=bottom;verticalAlign=top;html=1;shape=mxgraph.basic.x;labelBackgroundColor=#FF6666;fontColor=#FF0000;fillColor=#FF1212;" vertex="1" parent="1">
          <mxGeometry x="-249.99" y="585" width="39.99" height="20" as="geometry" />
        </mxCell>
        <mxCell id="fqgecBpv5Y54pybV76AC-60" value="" style="outlineConnect=0;fontColor=#232F3E;gradientColor=none;fillColor=#277116;strokeColor=none;dashed=0;verticalLabelPosition=bottom;verticalAlign=top;align=center;html=1;fontSize=12;fontStyle=0;aspect=fixed;pointerEvents=1;shape=mxgraph.aws4.iot_analytics_pipeline;" vertex="1" parent="1">
          <mxGeometry x="-92.15000000000003" y="480" width="74.29" height="40" as="geometry" />
        </mxCell>
      </root>
    </mxGraphModel>
  </diagram>
</mxfile>
